<?xml version="1.0" encoding="utf-8"?>
<!-- Generator: Adobe Illustrator 25.3.1, SVG Export Plug-In . SVG Version: 6.00 Build 0)  -->
<svg version="1.1"
	 id="svg4540" xmlns:cc="http://creativecommons.org/ns#" xmlns:dc="http://purl.org/dc/elements/1.1/" xmlns:inkscape="http://www.inkscape.org/namespaces/inkscape" xmlns:rdf="http://www.w3.org/1999/02/22-rdf-syntax-ns#" xmlns:sodipodi="http://sodipodi.sourceforge.net/DTD/sodipodi-0.dtd" xmlns:svg="http://www.w3.org/2000/svg"
	 xmlns="http://www.w3.org/2000/svg" xmlns:xlink="http://www.w3.org/1999/xlink" x="0px" y="0px" viewBox="0 0 121.3 69.1"
	 style="enable-background:new 0 0 121.3 69.1;" xml:space="preserve">
<sodipodi:namedview  bordercolor="#666666" borderopacity="1" gridtolerance="10" guidetolerance="10" id="namedview4542" inkscape:current-layer="svg4540" inkscape:cx="66.666664" inkscape:cy="40" inkscape:pageopacity="0" inkscape:pageshadow="2" inkscape:window-height="1027" inkscape:window-maximized="1" inkscape:window-width="1920" inkscape:window-x="-8" inkscape:window-y="-8" inkscape:zoom="2.1300001" objecttolerance="10" pagecolor="#ffffff" showgrid="false">
	</sodipodi:namedview>
<path id="path5093" inkscape:connector-curvature="0" d="M52.9,68.5c-0.5-0.5-0.9-7.9-1-16.4l0-15.4l-11.7-4.5
	c-6.4-2.5-14.5-5.6-18.1-7l-6.4-2.5l0.4,7.5l0.4,7.5l10.7,4.2L38,46v8.7c0,5-0.6,8.6-1.3,8.4c-0.7-0.1-9.3-3.3-19-7.1L0,49.1V24.6
	C0,4.4,0.3,0,1.9,0c1,0,14.3,4.8,29.5,10.7s28.3,10.7,29.1,10.7c0.8,0,13.9-4.8,29-10.7S117.9,0,119.1,0c2,0,2.2,2.5,2.2,23.8
	c0,17.5-0.4,24.2-1.7,25.2c-0.9,0.7-9.7,4.4-19.4,8.1c-13.2,5-17.9,6.3-18.4,5c-0.4-1-0.5-5-0.3-8.9l0.4-7.1l11.7-4.5l11.7-4.5v-7.3
	c0-5.3-0.5-7.2-1.7-6.7c-0.9,0.4-9,3.5-18,7l-16.3,6.3L69,52.5l-0.4,16.2l-7.4,0.4C57.2,69.3,53.5,69,52.9,68.5z"/>
</svg>
